<?xml version="1.0" encoding="UTF-8" standalone="no"?>
<svg
   width="100mm"
   height="100mm"
   version="1.1"
   viewBox="0 0 100 100"
   id="svg1"
   xmlns="http://www.w3.org/2000/svg"
   xmlns:svg="http://www.w3.org/2000/svg">
  <defs
     id="defs1" />
  <path
     id="flecha"
     d="M 100,50 C 100,22 77,0 50,0 21.764,0 0,23.166 0,50 0,58.676 2.297,67.942 7.475,76.314 l 33.56,-33.35 -8.56,-8.5 c -1.215,-1.208 -1.215,-1.208 0,-1.565 L 78.69,18.258 c 5.477,-1.872 5.477,-1.872 3.594,3.573 l -14.72,45.941 c -0.359,1.089 -0.359,1.089 -1.575,-0.119 L 57.6,59.316 24.446,93 c 9.3,5.262 17.343,7 25.554,7 29.005,0 50,-23.882 50,-50 z"
     fill="#001789"
     style="stroke-width:0" />
</svg>
