<?xml version="1.0" encoding="UTF-8" standalone="no"?>
<svg
   width="100mm"
   height="100mm"
   version="1.1"
   viewBox="0 0 100 100"
   id="svg1"
   xmlns="http://www.w3.org/2000/svg"
   xmlns:svg="http://www.w3.org/2000/svg">
  <defs
     id="defs1" />
  <path
     id="flecha"
     d="M 100,50 C 100,21 76.509,0 50,0 39.996,0 31.24,2.754 22.772,8 l 32.259,33.813 8.421,-8.35 c 1.173,-1.173 1.501,0 1.501,0 L 79.41,78.63 c 1.851,5.333 1.851,5.333 -3.535,3.517 L 30.518,67.697 c 0,0 -1.067,-0.333 0,-1.533 L 38.94,57.78 6.608,25.03 C 2.023,33.002 0,41.506736 0,50 c 0,25.568292 20.131606,50 50,50 25.999694,0 50,-20.811397 50,-50 z"
     fill="#001789"
     style="opacity:1;stroke-width:0" />
</svg>
