<?xml version="1.0" encoding="UTF-8" standalone="no"?>
<svg
   width="100mm"
   height="100mm"
   version="1.1"
   viewBox="0 0 100 100"
   id="svg1"
   xmlns="http://www.w3.org/2000/svg"
   xmlns:svg="http://www.w3.org/2000/svg">
  <defs
     id="defs1" />
  <path
     id="flecha"
     d="M 50,100 C 77.721,99.467 99.728,78.056 100,50 100.092,40.474 97.641,32.463 92.879,24.064 l -33.501,32.996 8.437,8.333 c 0.723,0.714 0.726,1.339 -0.177,1.697 L 21.447,81.583 c -5.51,1.871 -5.51,1.871 -3.616,-3.571 L 32.539,32.657 c 0.362,-1.088 0.86,-1.257 1.683,-0.443 L 42.659,40.547 76.198,7.386 C 67.581,2.077 58.413,-0.04 50,0 21.068,0.137 -0.101,23.737 0,50 c 0.109,28.241 23.316,50.513 50,50 z"
     fill="#001789"
     style="opacity:1;stroke-width:0" />
</svg>
