<?xml version="1.0" encoding="UTF-8" standalone="no"?>
<svg
   width="100mm"
   height="100mm"
   version="1.1"
   viewBox="0 0 100 100"
   id="svg1"
   xmlns="http://www.w3.org/2000/svg"
   xmlns:svg="http://www.w3.org/2000/svg">
  <defs
     id="defs1" />
  <path
     id="flecha"
     d="M 50,0 C 22.33,0 0,22.33 0,50 0,77.67 22.33,100 50,100 77.67,100 100,77.67 100,50 100,23.33 77.67,0 50,0 m 19,50 v 23 c 0,1 -1,1 -1,1 H 32 c -1,0 -1,-1 -1,-1 V 50 c 0,0 -5.5,0.04 -8,0 -3.01,0 -1,-3 0,-4 1,-1 26,-26 26,-26 0.5,-0.5 1.49,-0.49 2,0 l 26,26 c 3.77,4 0,4 0,4 z"
     fill="#001789"
     style="stroke-width:0" />
</svg>
