<?xml version="1.0" encoding="UTF-8" standalone="no"?>
<svg
   width="100mm"
   height="100mm"
   version="1.1"
   viewBox="0 0 100 100"
   id="svg1"
   xmlns="http://www.w3.org/2000/svg"
   xmlns:svg="http://www.w3.org/2000/svg">
  <defs
     id="defs1" />
  <path
     id="flecha"
     d="m 0,50 c 0,29.266 24.226,50 50,50 25,0 50,-19.723 50,-50 C 100,19.412 75,0 50,0 23.663,0 0,21.016 0,50 Z M 66.667,41.667 C 66.667,50 66.667,50 50,83.333 33.333,50 33.333,50 33.333,41.667 c 0,-25 33.333,-25 33.333,0 z M 50,35 c -3.333,0 -6.667,3.333 -6.667,6.667 0,3.333 3.333,6.667 6.667,6.667 3.333,0 6.667,-3.333 6.667,-6.667 C 56.667,38.333 53.333,35 50,35 Z"
     fill="#001789"
     style="stroke-width:0" />
</svg>
