<?xml version="1.0" encoding="UTF-8" standalone="no"?>
<svg
   width="100mm"
   height="100mm"
   version="1.1"
   viewBox="0 0 100 100"
   id="svg1"
   xmlns="http://www.w3.org/2000/svg"
   xmlns:svg="http://www.w3.org/2000/svg">
  <defs
     id="defs1" />
  <path
     id="flecha"
     d="M 0,50 C 0,19.5 25,0 50,0 76.119,0.079 100,20.9 100,50 100,80 75.5,100 50,100 25.87,100 0,81.36 0,50 Z M 63.333,66.667 V 33.333 c 0,-4.833 -8.5,-4.833 -8.5,0 v 33.333 c 0,4.833 8.5,4.833 8.5,0 z m 18.333,0 V 33.333 c 0,-4.833 -8.5,-4.833 -8.5,0 v 33.333 c 0,4.833 8.5,4.833 8.5,0 z M 45,53.333 c 4.167,-2.5 4.167,-5 0,-7.5 L 21.667,32.167 C 17.5,29.5 15,30.5 15,34.667 v 30 c 0,5 2.333,5 7.167,2.5 z"
     stroke-width=".15"
     fill="#001789"
     style="opacity:1;stroke-width:0" />
</svg>
